<svg xmlns="http://www.w3.org/2000/svg" viewBox="0 0 400 300">
  <rect width="400" height="300" fill="#faf6f0"/>
  <g fill="#e7ddd0" opacity="0.9">
    <path d="M0 0 Q20 150 0 300 L40 300 Q60 150 40 0 Z"/>
    <path d="M60 0 Q80 150 60 300 L100 300 Q120 150 100 0 Z"/>
    <path d="M120 0 Q140 150 120 300 L160 300 Q180 150 160 0 Z"/>
    <path d="M180 0 Q200 150 180 300 L220 300 Q240 150 220 0 Z"/>
    <path d="M240 0 Q260 150 240 300 L280 300 Q300 150 280 0 Z"/>
    <path d="M300 0 Q320 150 300 300 L340 300 Q360 150 340 0 Z"/>
    <path d="M360 0 Q380 150 360 300 L400 300 Q420 150 400 0 Z"/>
  </g>
  <text x="50%" y="50%" dominant-baseline="middle" text-anchor="middle" font-family="Arial, sans-serif" font-size="22" fill="#6b6258">фото: тюль</text>
</svg>
